<svg width="84" height="84" viewBox="0 0 84 84" fill="none" xmlns="http://www.w3.org/2000/svg">
<path d="M58.6667 34.7916L37.8333 22.75C36.5671 22.0189 35.1309 21.6339 33.6688 21.6335C32.2067 21.6331 30.7703 22.0174 29.5037 22.7478C28.2371 23.4782 27.185 24.529 26.453 25.7946C25.721 27.0603 25.3348 28.4962 25.3333 29.9583V54.0416C25.3348 55.503 25.7206 56.9383 26.4519 58.2035C27.1833 59.4687 28.2344 60.5193 29.5 61.25C30.7668 61.9814 32.2039 62.3664 33.6667 62.3664C35.1295 62.3664 36.5665 61.9814 37.8333 61.25L58.6667 49.2083C59.9295 48.4758 60.9777 47.4243 61.7064 46.1593C62.435 44.8942 62.8186 43.4599 62.8186 42C62.8186 40.5401 62.435 39.1058 61.7064 37.8407C60.9777 36.5756 59.9295 35.5242 58.6667 34.7916ZM54.5 42L33.6667 54.0416V29.9583L54.5 42ZM42 0.333313C33.7591 0.333313 25.7033 2.77702 18.8512 7.35541C11.9992 11.9338 6.65867 18.4412 3.50502 26.0548C0.351368 33.6684 -0.473771 42.0462 1.13395 50.1287C2.74166 58.2113 6.71003 65.6356 12.5372 71.4628C18.3644 77.2899 25.7887 81.2583 33.8712 82.866C41.9538 84.4738 50.3316 83.6486 57.9452 80.495C65.5587 77.3413 72.0662 72.0008 76.6446 65.1487C81.223 58.2967 83.6667 50.2409 83.6667 42C83.6667 36.5282 82.5889 31.1101 80.495 26.0548C78.401 20.9996 75.3319 16.4063 71.4628 12.5372C67.5937 8.66809 63.0004 5.59895 57.9452 3.505C52.8899 1.41105 47.4718 0.333313 42 0.333313ZM42 75.3333C35.4073 75.3333 28.9626 73.3783 23.481 69.7156C17.9994 66.0529 13.7269 60.847 11.204 54.7561C8.6811 48.6652 8.02099 41.963 9.30716 35.497C10.5933 29.0309 13.768 23.0915 18.4298 18.4298C23.0915 13.768 29.031 10.5933 35.497 9.30714C41.963 8.02096 48.6652 8.68108 54.7561 11.204C60.847 13.7269 66.0529 17.9993 69.7157 23.481C73.3784 28.9626 75.3333 35.4073 75.3333 42C75.3333 50.8405 71.8214 59.319 65.5702 65.5702C59.319 71.8214 50.8406 75.3333 42 75.3333Z" fill="#0077B5"/>
</svg>
