<svg width="84" height="84" viewBox="0 0 84 84" fill="none" xmlns="http://www.w3.org/2000/svg">
<path d="M71.1667 42H42V12.8333C42 10.3333 40.3333 8.66665 37.8333 8.66665C17 8.66665 0.333344 25.3333 0.333344 46.1666C0.333344 67 17 83.6666 37.8333 83.6666C58.6667 83.6666 75.3333 67 75.3333 46.1666C75.3333 43.6666 73.6667 42 71.1667 42ZM42 74.9166C26.1667 77.4166 11.1667 66.1666 9.08334 50.3333C6.58334 34.5 17.8333 19.5 33.6667 17.4166V46.1666C33.6667 48.6666 35.3333 50.3333 37.8333 50.3333H66.5833C64.9167 63.25 54.9167 73.25 42 74.9166ZM54.5 0.333313C52 0.333313 50.3333 1.99998 50.3333 4.49998V29.5C50.3333 32 52 33.6666 54.5 33.6666H79.5C82 33.6666 83.6667 32 83.6667 29.5C83.6667 13.25 70.75 0.333313 54.5 0.333313ZM58.6667 25.3333V9.08331C67 10.75 73.25 17 74.9167 25.3333H58.6667Z" fill="white"/>
</svg>
