<svg width="68" height="92" viewBox="0 0 68 92" fill="none" xmlns="http://www.w3.org/2000/svg">
<path d="M55.2084 7.75002C51.3762 4.59829 46.8889 2.34181 42.0736 1.1452C37.2584 -0.051401 32.2367 -0.157942 27.375 0.833353C20.9016 2.14094 14.9625 5.34199 10.3112 10.0304C5.65993 14.7187 2.50616 20.6831 1.25002 27.1667C0.332716 32.028 0.499405 37.0319 1.7382 41.8214C2.97699 46.6109 5.25736 51.0681 8.41669 54.875C11.3487 58.1836 13.0293 62.4147 13.1667 66.8334V79.3334C13.1667 82.6486 14.4837 85.828 16.8279 88.1722C19.1721 90.5164 22.3515 91.8334 25.6667 91.8334H42.3334C45.6486 91.8334 48.828 90.5164 51.1722 88.1722C53.5164 85.828 54.8334 82.6486 54.8334 79.3334V67.625C54.9732 62.7466 56.7655 58.0602 59.9167 54.3334C65.438 47.5033 68.0407 38.7701 67.1591 30.0318C66.2774 21.2935 61.9828 13.2562 55.2084 7.66669V7.75002ZM46.5 79.3334C46.5 80.4384 46.061 81.4982 45.2796 82.2796C44.4982 83.061 43.4384 83.5 42.3334 83.5H25.6667C24.5616 83.5 23.5018 83.061 22.7204 82.2796C21.939 81.4982 21.5 80.4384 21.5 79.3334V75.1667H46.5V79.3334ZM53.4584 49.1667C49.2688 54.1359 46.8245 60.3419 46.5 66.8334H38.1667V54.3334C38.1667 53.2283 37.7277 52.1685 36.9463 51.3871C36.1649 50.6057 35.1051 50.1667 34 50.1667C32.895 50.1667 31.8351 50.6057 31.0537 51.3871C30.2723 52.1685 29.8334 53.2283 29.8334 54.3334V66.8334H21.5C21.3901 60.4504 19.029 54.3115 14.8334 49.5C12.0652 46.1833 10.2037 42.2059 9.43048 37.9556C8.65723 33.7053 8.99857 29.3272 10.4212 25.2481C11.8439 21.169 14.2993 17.5281 17.548 14.6805C20.7968 11.833 24.728 9.87585 28.9584 9.00002C32.594 8.25145 36.3507 8.32187 39.9557 9.20614C43.5608 10.0904 46.9236 11.7664 49.8002 14.1123C52.6768 16.4583 54.9949 19.4153 56.5862 22.7688C58.1775 26.1224 59.0021 29.7881 59 33.5C59.0309 39.2078 57.0712 44.7478 53.4584 49.1667Z" fill="white"/>
</svg>
