<svg width="72" height="84" viewBox="0 0 72 84" fill="none" xmlns="http://www.w3.org/2000/svg">
<path d="M4.83333 42C3.72826 42 2.66846 42.439 1.88705 43.2204C1.10565 44.0018 0.666664 45.0616 0.666664 46.1666V79.5C0.666664 80.605 1.10565 81.6649 1.88705 82.4463C2.66846 83.2277 3.72826 83.6666 4.83333 83.6666C5.9384 83.6666 6.99821 83.2277 7.77961 82.4463C8.56101 81.6649 9 80.605 9 79.5V46.1666C9 45.0616 8.56101 44.0018 7.77961 43.2204C6.99821 42.439 5.9384 42 4.83333 42ZM25.6667 0.333313C24.5616 0.333313 23.5018 0.7723 22.7204 1.5537C21.939 2.3351 21.5 3.39491 21.5 4.49998V79.5C21.5 80.605 21.939 81.6649 22.7204 82.4463C23.5018 83.2277 24.5616 83.6666 25.6667 83.6666C26.7717 83.6666 27.8315 83.2277 28.6129 82.4463C29.3943 81.6649 29.8333 80.605 29.8333 79.5V4.49998C29.8333 3.39491 29.3943 2.3351 28.6129 1.5537C27.8315 0.7723 26.7717 0.333313 25.6667 0.333313ZM67.3333 58.6666C66.2283 58.6666 65.1685 59.1056 64.3871 59.887C63.6057 60.6684 63.1667 61.7282 63.1667 62.8333V79.5C63.1667 80.605 63.6057 81.6649 64.3871 82.4463C65.1685 83.2277 66.2283 83.6666 67.3333 83.6666C68.4384 83.6666 69.4982 83.2277 70.2796 82.4463C71.061 81.6649 71.5 80.605 71.5 79.5V62.8333C71.5 61.7282 71.061 60.6684 70.2796 59.887C69.4982 59.1056 68.4384 58.6666 67.3333 58.6666ZM46.5 25.3333C45.3949 25.3333 44.3351 25.7723 43.5537 26.5537C42.7723 27.3351 42.3333 28.3949 42.3333 29.5V79.5C42.3333 80.605 42.7723 81.6649 43.5537 82.4463C44.3351 83.2277 45.3949 83.6666 46.5 83.6666C47.6051 83.6666 48.6649 83.2277 49.4463 82.4463C50.2277 81.6649 50.6667 80.605 50.6667 79.5V29.5C50.6667 28.3949 50.2277 27.3351 49.4463 26.5537C48.6649 25.7723 47.6051 25.3333 46.5 25.3333Z" fill="white"/>
</svg>
